.
..............................Site Info...........................

 -   http://www.scenetime.com  *_*   


Scenetime .Always on time . friendly online private torrent community ..

     We care to share . Join us on  http://www.scenetime.com 

    Be the first to get new release at  http://www.scenetime.com

        Seed back for speed


...................................NFO:.................................................[img]http://i.imgur.com/HnANW.jpg[/img]

[b]Snow.White.and.the.Huntsman.2012.TS.XViD.AC3-ADTRG[/b]

In a twist to the fairy tale, the Huntsman ordered to take Snow White into the woods to be killed winds up becoming her protector and mentor in a quest to vanquish the Evil Queen. 

[url]http://www.imdb.com/title/tt1735898/[/url]

Source -   Cam    German            Thanks
Source -   LiNe - Dragon Exclusive  Thanks, Awesome work bro ;)

Complete name                            : Snow.White.and.the.Huntsman.2012.TS.XViD.AC3-ADTRG.avi
Format                                   : AVI
Format/Info                              : Audio Video Interleave
File size                                : 1.39 GiB
Duration                                 : 1h 57mn
Overall bit rate                         : 1 693 Kbps
Writing application                      : Nandub v1.0rc2
Writing library                          : VirtualDub build 34703/release

Video
ID                                       : 0
Format                                   : MPEG-4 Visual
Codec ID                                 : XVID
Bit rate                                 : 1 489 Kbps
Width                                    : 720 pixels
Height                                   : 320 pixels
Display aspect ratio                     : 2.25:1
Frame rate                               : 29.970 fps
Stream size                              : 1.22 GiB (88%)

Audio
ID                                       : 1
Format                                   : AC-3
Bit rate                                 : 192 Kbps
Channel(s)                               : 2 channels
Channel positions                        : Front: L R
Sampling rate                            : 48.0 KHz
Stream size                              : 161 MiB (11%)



Notes.
Very nice Cam, Even better LiNe (Cheers Bro) slight flicker every now and then, luckily not to often or to bad. Who reads NFO's anyway, so im of to bed, get some BooM Boom and Eat. Enjoy ;)
Remember, if you love it and you want it, Sync some LiNe with it. lol



[img]http://i.imgur.com/ofAQY.jpg[/img]




[IMG]http://i.imgur.com/2739o.gif?1?8830[/IMG]

Dont fear the Atomic Dragon, Embrace it  :)


Greetz to DragonMaster,cOOkies,Mr Geek,DBratt420,AnimeKing,Jiinx,Cush,NoWoRRiEs Rayne, Mr & Mrs IrNbRu and the rest of the crew

Respect to CM8,Goon,Hope,mSD,InfernO,legend-rg and maybe a few more ;)